/* XPM */
static char * door_xpm[] = {
"64 64 11 1",
" 	c None",
".	c #434B4D",
"+	c #667176",
"@	c #0D0E0F",
"#	c #1C1E20",
"$	c #642E1D",
"%	c #4C141F",
"&	c #C7C7B0",
"*	c #782033",
"=	c #7F8C7F",
"-	c #A56631",
".....+...............@..#.........@@@@@@@@@.....................",
"$$$$$$$$$$$$$$$$$$$$$$$$$$$$$$$$$$$$$$$$$$$$$$$$$$$$$$$$$$$$$$$$",
"$$$$$$$$$$$$$$$$$$$$$$$$$$$$$$$$$$$$$$$$$$$$$$$$$$$$$$$$$$$$$$$$",
"$$$$$$$$$$$$$$$$$$$$$$$$$$$$$$$$$$$$$$$$$$$$$$$$$$$$$$$$$$$$$$$$",
"$$$$$$$$$$$$$$$$$$$$$$$$$$$$$$$$$$$$$$$$$$$$$$$$$$$$$$$$$$$$$$$$",
"$$$$$$$$$$$$$$$$$$$$$$$$$$$$$$$$$$$$$$$$$$$$$$$$$$$$$$$$$$$$$$$$",
"$$$$$$$$$$$$$$$$$$$$$$$$$$$$$$$$$$$$$$$$$$$$$$$$$$$$$$$$$$$$$$$$",
"..+.$$$$$$%%%%%%%%%%%%%%%%%%%%%%%@%%%%%%%%%%%%%%%%%%%%%%$$$$$$..",
"....$$$$$$%%%%%%%%%%%%%%%%%%%%%%%@%%%%%%%%%%%%%%%%%%%%%%$$$$$$..",
".&..$$$$$$%%%********************@********************%%$$$$$$..",
"@@..$$$$$$%%%********************@********************%%$$$$$$..",
"@@@@$$$$$$%%%**%%%%%%%%%%%%%%%%%%@%%%%%%%%%%%%%%%%%%**%%$$$$$$..",
"@@@@$$$$$$%%%**%*****************@*****************%**%%$$$$$$@&",
"@@@@$$$$$$%%%**%*****************@*****************%**%%$$$$$$@@",
"....$$$$$$%%%**%**%%%%%%%%%%%%%%%@%%%%%%%%%%%%%%%**%**%%$$$$$$@@",
"....$$$$$$%%%**%**%**************@**************%**%**%%$$$$$$.@",
"....$$$$$$%%%**%**%**************@**************%**%**%%$$$$$$..",
"..+.$$$$$$%%%**%**%**%%%%%%%%%%%%@%%%%%%%%%%%%**%**%**%%$$$$$$#.",
"..#.$$$$$$%%%**%**%**%***********@***********%**%**%**%%$$$$$$..",
"..#.$$$$$$%%%**%**%**%***********@***********%**%**%**%%$$$$$$##",
"....$$$$$$%%%**%**%**%**%%%%%%%%%@%%%%%%%%%**%**%**%**%%$$$$$$.=",
"....$$$$$$%%%**%**%**%**%********@********%**%**%**%**%%$$$$$$#+",
"@..#$$$$$$%%%**%**%**%**%********@********%**%**%**%**%%$$$$$$..",
"@@+.$$$$$$%%%**%**%**%**%**%%%%%%@%%%%%%**%**%**%**%**%%$$$$$$#.",
"@@@.$$$$$$%%%**%**%**%**%**%%%%%%@%%%%%%**%**%**%**%**%%$$$$$$@@",
"@@@.$$$$$$%%%**%**%**%**%**%%%%%%@%%%%%%**%**%**%**%**%%$$$$$$@@",
".@@@$$$$$$%%%**%**%**%**%**%%%%%%@%%%%%%**%**%**%**%**%%$$$$$$@@",
".@@@$$$$$$%%%**%**%**%**%**%%%%%%@%%%%%%**%**%**%**%**%%$$$$$$..",
"..@@$$$$$$%%%**%**%**%**%**%%%%%%@%%%%%%**%**%**%**%**%%$$$$$$-.",
"...@$$$$$$%%%**%**%**%**%**%%%%%%@%%%%%%**%**%**%**%**%%$$$$$$..",
"....$$$$$$%%%**%**%**%**%**%%%%%%@%%%%%%**%**%**%**%**%%$$$$$$.-",
"=&..$$$$$$%%%**%**%**%**%**%%%%%%@%%%%%%**%**%**%**%**%%$$$$$$..",
"==..$$$$$$%%%**%**%**%**%**%%%%%%@%%%%%%**%**%**%**%**%%$$$$$$..",
".&..$$$$$$%%%**%**%**%**%**%%%%%%@%%%%%%**%**%**%**%**%%$$$$$$##",
"....$$$$$$%%%**%**%**%**%**%%%%%%@%%%%%%**%**%**%**%**%%$$$$$$..",
"....$$$$$$%%%**%**%**%**%**%%%%%%@%%%%%%**%**%**%**%**%%$$$$$$..",
".+.+$$$$$$%%%**%**%**%**%**%%%%%%@%%%%%%**%**%**%**%**%%$$$$$$..",
"..+.$$$$$$%%%**%**%**%**%**%%@%%%@%%@%%%**%**%**%**%**%%$$$$$$..",
"....$$$$$$%%%**%**%**%**%**%%%%%%@%%%%%%**%**%**%**%**%%$$$$$$..",
"....$$$$$$%%%**%**%**%**%**%%%%%%@%%%%%%**%**%**%**%**%%$$$$$$..",
"....$$$$$$%%%**%**%**%**%**%%%%%%@%%%%%%**%**%**%**%**%%$$$$$$..",
"@@@@$$$$$$%%%**%**%**%**%**%%%%%%@%%%%%%**%**%**%**%**%%$$$$$$@@",
"@@@@$$$$$$%%%**%**%**%**%**%%%%%%@%%%%%%**%**%**%**%**%%$$$$$$@@",
"&...$$$$$$%%%**%**%**%**%**%%%%%%@%%%%%%**%**%**%**%**%%$$$$$$..",
"....$$$$$$%%%**%**%**%**%**%%%%%%@%%%%%%**%**%**%**%**%%$$$$$$.+",
".&..$$$$$$%%%**%**%**%**%**%%%%%%@%%%%%%**%**%**%**%**%%$$$$$$.=",
"....$$$$$$%%%**%**%**%**%**%%%%%%@%%%%%%**%**%**%**%**%%$$$$$$#=",
"....$$$$$$%%%**%**%**%**%**%%%%%%@%%%%%%**%**%**%**%**%%$$$$$$..",
"....$$$$$$%%%**%**%**%**%**%%%%%%@%%%%%%**%**%**%**%**%%$$$$$$.#",
"...&$$$$$$%%%**%**%**%**%**%%%%%%@%%%%%%**%**%**%**%**%%$$$$$$..",
"..&.$$$$$$%%%**%**%**%**%**%%%%%%@%%%%%%**%**%**%**%**%%$$$$$$..",
".#..$$$$$$%%%**%**%**%**%**%%%%%%@%%%%%%**%**%**%**%**%%$$$$$$.@",
"@@#.$$$$$$%%%**%**%**%**%********@********%**%**%**%**%%$$$$$$@@",
"@@@@$$$$$$%%%**%**%**%**%********@********%**%**%**%**%%$$$$$$@@",
"@@@@$$$$$$%%%**%**%**%**%%%%%%%%%@%%%%%%%%%**%**%**%**%%$$$$$$@@",
"..#=$$$$$$%%%**%**%**%***********@***********%**%**%**%%$$$$$$@#",
"...#$$$$$$%%%**%**%**%***********@***********%**%**%**%%$$$$$$..",
"..#=$$$$$$%%%**%**%**%%%%%%%%%%%%@%%%%%%%%%%%%**%**%**%%$$$$$$..",
".#==$$$$$$%%%**%**%**************@**************%**%**%%$$$$$$..",
"+#==$$$$$$%%%**%**%**************@**************%**%**%%$$$$$$..",
"#==+$$$$$$%%%**%**%%%%%%%%%%%%%%%@%%%%%%%%%%%%%%%**%**%%$$$$$$..",
"==.=$$$$$$%%%**%*****************@*****************%**%%$$$$$$.#",
"=#=#$$$$$$%%%**%*****************@*****************%**%%$$$$$$..",
"====$$$$$$%%%**%%%%%%%%%%%%%%%%%%@%%%%%%%%%%%%%%%%%%**%%$$$$$$.."};
