/* XPM */
static char * wall3_xpm[] = {
"64 64 10 1",
" 	c None",
".	c #434B4D",
"+	c #667176",
"@	c #0D0E0F",
"#	c #1C1E20",
"$	c #C7C7B0",
"%	c #A56631",
"&	c #7F8C7F",
"*	c #746720",
"=	c #8E2C2C",
".....+...............@..#.........@@@@@@@@@.....................",
".......#.....#.......@...........$@@@@@@@@@..#..................",
"....+..........#...$.@$..#$.#$.+...%@@@@@...+.....#......#.#....",
"....#.......#.......$@.............##@@@......$....$....#.......",
".$.................$@@...........#....@@.+$..........%........%.",
"...+$...#....%.....@@@.$.....%...+..$.@#........$..$.%....#....#",
".$..+............#.@@@+...##..........@@.....$.......#.#........",
"..+..............#@@@@@@@........%....@@@.......#.....%&%.......",
"....+.....%..#...@@.%@@@@@@@@@......@@@@@@$+.....#........%.....",
".$.......$.$#...@@@..$.@@@@@@@@@@@@@@@@@@@@&$%.....@@@@@@@$.....",
"@@...........$@@@@@%.#%..#.#@@@@@@@@@@@@@@@@@@...@@@@@@@@@@@.%..",
"@@@@....#$$..@@@@@@#.##.........#.%..@@@@@@@@@@@@@@@@#..@@@@@@..",
"@@@@@@@@@@@@@@@@@@@@@$#.............@@@@@@@.@@@@@@@..$..$+@@@@@$",
"@@@@@@@@@@@%$#$+#%@@@@......%...%..@@@@@@@@.#.&&$.....$.#..#@@@@",
".......@@@@$....$$.@@@@@...$.#....@@@@.%@@@%..%.#...$..##.@@@@@@",
"......$@@@@#....%&&#@@@@@@@....%.@@@@$..@@+...+.&%#$###.#.@@@..@",
"....$...@@@$$.###$&...@@@@@@@@@@@@@@%#..@@.#.+&.&&%.%$....@@.#..",
"..+.#$%.@@@......$$$.....@@@@@@@@@@.....@@@@.$$+.&%......%@@.##.",
"..#.$$..@@@.....#$&#$$....@@..%..$.%++.%@@@@@....$.%+...%.@@....",
"..#....%#@@......+%&$.....@@..+.%..#.+.+#.@@@@..$$......%.@@..##",
".........@@.##.#...#....+.@@@.+.$.++.......@@@@.$&..#.$.$.@@#..&",
".....##.#@@.#.......#....@@@@@@@..+$..+.#.#.@@@@.$......##@@..#+",
"@..#+...#@@.+....#...#...@@@@@@@@@@+......%.@@@@@@.%....#@@@.+..",
"@@+.+#.$.@@@.......$.$...@@%...@@@@@@......@@@@@@@@@@@@@@@@@@.#.",
"@@@.......@@.$.#.#......@@@...+..@@@@@@@@@@@@@@@@@@@@@@@@@@@@@@@",
"@@@.......@@@@@@@......@@@.........@@@@@@@@@@@@@@@@@...@@@@@@@@@",
".@@@.#...@@@@@@@@@@@@@@@@@....$.+...@@@@@@@@@@@@@@@@...@@@@@@@@@",
".@@@@....@@@@@@@@@@@@@@@@..$...+.#..@@@@@@@@@@@$..@@...@@@..%...",
"..@@@@@@@@@@@****$#......+.........+@@@@@@@@@****..@@+%@@@....%.",
"...@@@@@@@@@@****.#......+.$....#.#.@@@@@@@@@****.$.@@@@@@@.....",
".......@@@@@@=====+............$.....@@@@@#..====...@@@@@@@%...%",
"&$.....@@@@@========.....#$......#...@@@@@+=========.@@@@@@.....",
"&&.....@@@=====*======......#....#...@@@..============@@@@@..+..",
".$....========***@@======....#.$..$@@@@@=====****+======@@@...##",
"..=========..****.+@@========@@@@@@@@=======.****...========....",
"========@@...****....@@===================#..****...+.==========",
"====.$$.@@...****+...@@@@@.============......****.......@@======",
"..+.....@@.$+****....@@@@...#....#&&@@@$.%.%.****...%...@@@.....",
".......@@@...****.+..@@@..+.#...#&##@@@#$....****.......@@@..#..",
".....#@@@@@..****#...@@@....$..#&&&@@@@#.....****.......@@@@#+..",
"....@@@@@@@.#****....@@.........###@@@@@...##****.......@@@@@...",
"@@@@@@@@.@@@.****#...@@....$...##..@@.@@@....****....&.%@@@@@@@@",
"@@@@@@...@@@.****...@@@....$.......@@.$@@@@..****....$.@@@.@@@@@",
"$........+@@@****...@@@........$#.@@@@@@@@@@@****%$..@@@@$......",
"...........@@****@@@@@@@@......#.@@@@@@@@@@@@****@@@@@@@.+..#..+",
".$.........@@****@@@@@@@@@..#.@@@@@@+.@@@@@@@****@@@@@@#.......&",
"......##...@@****@@@@@@@@@@@@@@@@@.#...#@@@@@****.#.....+.....#&",
"....#...#.@@@****@@@@@@@@@@@@@@@@........$@@@****..%.....#..#...",
".....+....@@@****@@@@@@@@....#.@@.#..........****...#.%%..#+.#.#",
"...$....#@@@.****@@@@@@......#.@@@.........##****#.#...#....#...",
"..$.#..#&@@@#****@@@@#.+...#...@@@..+...#....****@.#....#.......",
".#....#&@@@#.****@@@#$.$..#.$...@@##.........****@.............@",
"@@#...@@@@$$#****@@......+..#...@@@..##..##..****@@.##........@@",
"@@@@@@@@@&&#.****@@@.....&$.....@@@......+...****@@@#.......#@@@",
"@@@@@@@@@&##.****.@@....##.......@@@...#@@@@@****@@@@@.#...@@@@@",
"..#&#&@@@@#..****@@@.............@@@@@@@@@@@@****.@@@@@@@@@@@@@#",
"...##&#@@@@@@****@@@@.........#.@@@@@@@@@@@..****...$@@@@@@@@...",
"..#&&&###@@@@****@@@@.....+.#.@@@@....$.@@@..****........@@@....",
".#&&&#&##.#.@****..@@@.......@@@@.....##@@.##****..+......@@....",
"+#&&&&&##...@****..@@@@@....@@@@........@@$..****.........@@@...",
"#&&+#&#.&..#@****#..@@@@@@@@@@@.$..##.#.@@..#****.$...#+...@@...",
"&&.&&&#&&##@@****....+.@@@@@@@.....##...@@...****.#..#.#..#@@..#",
"&#&#&&&&&&@@@****+.......@@@@@........#.@@@@.****....#.....@@@..",
"&&&&&&#&&@@@@****..........@@@.........#.@@@@****..#......#@@@.."};
