/* XPM */
static char * wall4_xpm[] = {
"64 64 13 1",
" 	c None",
".	c #434B4D",
"+	c #667176",
"@	c #0D0E0F",
"#	c #1C1E20",
"$	c #C7C7B0",
"%	c #A56631",
"&	c #7F8C7F",
"*	c #17274D",
"=	c #2A4684",
"-	c #CD4343",
";	c #B19C31",
">	c #FF5252",
".....+...............@..#.........@@@@@@@@@.....................",
".......#.....#.......@...........$@@@@@@@@@..#..................",
"....+..........#...$.@$..#$.#$.+...%@@@@@...+.....#......#.#....",
"....#.......#.......$@.............##@@@......$....$....#.......",
".$.................$@@...........#....@@.+$..........%........%.",
"...+$...#....%.....@@@.$.....%...+..$.@#........$..$.%....#....#",
".$..+............#.@@@+...##..........@@.....$.......#.#........",
"..+..............#@@@@@@@........%....@@@.......#.....%&%.......",
"....+.....%..#...@@.%@@@@@@@@@......@@@@@@$+.....#........%.....",
".$.......$.$#...@@@..$.@@@@@@@@@@@@@@@@@@@@&$%.....@@@@@@@$.....",
"@@...........$@@@@@%.#%..#.#@@@@@@@@@@@@@@@@@@...@@@@@@@@@@@.%..",
"@@@@....#$$..@@@@@@#.##.........#.%..@@@@@@@@@@@@@@@@#..@@@@@@..",
"@@@@@@@@@@@@@@@@@@@@@$#.............@@@@@@@.@@@@@@@..$..$+@@@@@$",
"@@@@@@@@@@@%$#$+#%@@@@......%...%..@@@@@@@@.#.&&$.....$.#..#@@@@",
".......@@@@$....*********..$.#....@@@@.%@@@%..%.#...$..##.@@@@@@",
"......$@@@@#..***********@@....%.@@@@$..@@+...+.&%#$###.#.@@@..@",
"....$...@@@$$************@@@@@@@@@@@%#..@@.#.+&.**%.%$....@@.#..",
"..+.#$%.@@@..************@@@@@@@@@@.....@@@@.$$+**%......%@@.##.",
"..#.$$..@@@..******#$****.@@..%..$.%++.==@@@@..***.%+...%.@@....",
"..#....%#@@..*****%&$****.@@..+.%..#.+.===@@@@.***......%.@@..##",
".........@@.#****..#....+.@@@.+.$.++...===.@@@****..#.$.$.@@#..&",
".....##.#@@.#****...#....@@@@@@@..+$..+=====@@****......##@@..#+",
"@..#+...#@@.+****#...#...@@@@@@@@@@+...=====@*****.%....#@@@.+..",
"@@+.+#.$.@@@.****..$.$...@@%...@@@@@@..=====*******@@@@@@@@@@.#.",
"@@@.......@@.*****......@@@...+..@@@@@@====********@@@@@@@@@@@@@",
"@@@.......@@@*****.....@@@.........@@@@===*********@...@@@@@@@@@",
".@@@.#...@@@@*****@@@@@@@@....$.+...@@@@==***********..@@@@@@@@@",
".@@@@....@@@@******@@@@@@..$...+.#..@@@@==***********--@@@..%...",
"..@@@@@@@@@@@@*****......+.........+@@@@*;;***;;*****--*@@....%.",
"*******@@@@@@@*****......+.$....#.#.@@@@*;;***;;*****--*@@@*****",
"*******************............$.....@@*************---*********",
"*******************......#$......#...@@************----*********",
"******************@@@.......#....#...@@****>>*****----**********",
"******************@@@@@@.....#.$..$@@@@****>>****---************",
"*****************.+@@@@@@@@@@@@@@@@@@@@*********---*************",
"******************...@@@@@@@@@@@@@@@@..*********---*************",
"*******************..@@@@@..#....$@@@@..*******---**************",
"*******************..@@@@...#....#&&@@@$******---***************",
"********************.@@@..+.#...#&##@@@#$****----***************",
"********************.@@@....$..#&&&@@@@#...**---****************",
"********************.@@.........###@@@@@...##--*****************",
"********************.@@....$...##..@@.@@@.....******************",
"********************@@@....$.......@@.$@@@@...******************",
"********************@@@........$#.@@@@@@@@@@@#******************",
"*******************@@@@@@......#.@@@@@@@@@@@@@@*****************",
"*******************@@@@@@@..#.@@@@@@+.@@@@@@@@@*****************",
"******************@@@@@@@@@@@@@@@@.#...#@@@@@@.*****************",
"*****************@@@@@@@@@@@@@@@@........$@@********************",
"****************.@@@@@@@@....#.@@.#........*********************",
"****************.@@@@@@......#.@@@........**********************",
"****************#@@@@#.+...#...@@@..+...#**********#.***********",
"****************.@@@#$.$..#.$...@@##....********@@.....*********",
"*******@********.@@......+..#...@@@..##********$@@@.##.....*****",
"@@@@@@@@@*******.@@@.....&$.....@@@...********$@@@@@#.......#@@@",
"@@@@@@@@@&******..@@....##.......@@@..*******@@@@@@@@@.#...@@@@@",
"..#&#&@@@@#*****@@@@.............@@@@@*****@@@@@..@@@@@@@@@@@@@#",
"...##&#@@@@*****@@@@@.........#.@@@@@@****@..#..#...$@@@@@@@@...",
"..#&&&###@@*****@@@@@.....+.#.@@@@....$.@@@..#..+........@@@....",
".#&&&#&##.#******..@@@.......@@@@.....##@@.##..#+..+......@@....",
"+#&&&&&##...*****..@@@@@....@@@@........@@$...............@@@...",
"#&&+#&#.&..#*****#..@@@@@@@@@@@.$..##.#.@@..##....$...#+...@@...",
"&&.&&&#&&##@*****....+.@@@@@@@.....##...@@....#...#..#.#..#@@..#",
"&#&#&&&&&&@@*****+.......@@@@@........#.@@@@.........#.....@@@..",
"&&&&&&#&&@@@*****..........@@@.........#.@@@@..#...#......#@@@.."};
